<?xml version="1.0" encoding="utf-8"?>
<?xml-stylesheet type="text/xsl" href="rss1.xsl"?>
<rss version="2.0" xmlns:atom="http://www.w3.org/2005/Atom" xmlns:content="http://purl.org/rss/1.0/modules/content/" xmlns:dc="http://purl.org/dc/elements/1.1/" xmlns:media="http://search.yahoo.com/mrss/">
<channel>
 <title>Getty</title>
 <link>http://www.gettyimg.com/</link>
 <atom:link href="http://www.gettyimg.com/" rel="self" type="application/rss+xml" />

 
                <item>
                <title><![CDATA[【HD Live Performances】HDTV - Restart - Sobe o Som - Caldeirão - HDTV 1080P DD5.1 H264-chmt]]></title>
                <link><![CDATA[https://sharemania.us/threads/restart-sobe-o-som-caldeir%C3%A3o-hdtv-1080p-dd5-1-h264-chmt.228104/]]></link>
                <description><![CDATA[<article>
<blockquote class="messageText SelectQuoteContainer ugc baseHtml">
<img src="https://i.imgur.com/OzEf8GI.jpeg" class="bbCodeImage LbImage" alt="[​IMG]" data-url="https://i.imgur.com/OzEf8GI.jpeg" style=""><br>
<br>
Primeira apresentação depois de 8 anos!<br>
<br>
<div class="ToggleTriggerAnchor bbCodeSpoilerContainer">
<button type="button" class="button bbCodeSpoilerButton ToggleTrigger Tooltip JsOnly" data-target="> .SpoilerTarget"><span>Spoiler: <span class="SpoilerTitle">MediaInfo</span></span></button>
<div class="SpoilerTarget bbCodeSpoilerText">General<br>
ID : 1 (0x1)<br>
Complete name : C:\Restart.-.Sobe.o.Som.-.Caldeirão.-.HDTV.1080P.DD5.1.H264-chmt.ts<br>
Format : MPEG-TS<br>
File size : 2.51 GiB<br>
Duration : 29 min 13 s<br>
Overall bit rate mode : Variable<br>
Overall bit rate : 12.3 Mb/s<br>
<br>
Video<br>
ID : 256 (0x100)<br>
Menu ID : 1 (0x1)<br>
Format : AVC<br>
Format/Info : Advanced Video Codec<br>
Format profile : High@L4<br>
Format settings, CABAC : Yes<br>
Format settings, RefFrames : 3 frames<br>
Codec ID : 27<br>
Duration : 29 min 13 s<br>
Bit rate mode : Constant<br>
Bit rate : 11.0 Mb/s<br>
Width : 1 920 pixels<br>
Height : 1 080 pixels<br>
Display aspect ratio : 16:9<br>
Frame rate : 29.970 (30000/1001) FPS<br>
Color space : YUV<br>
Chroma subsampling : 4:2:0<br>
Bit depth : 8 bits<br>
Scan type : Interlaced<br>
Scan type, store method : Separated fields<br>
Scan order : Top Field First<br>
Bits/(Pixel*Frame) : 0.177<br>
Stream size : 2.20 GiB (88%)<br>
Color range : Limited<br>
Color primaries : BT.709<br>
Transfer characteristics : BT.709<br>
Matrix coefficients : BT.709<br>
<br>
Audio #1<br>
ID : 257 (0x101)<br>
Menu ID : 1 (0x1)<br>
Format : AC-3<br>
Format/Info : Audio Coding 3<br>
Format settings, Endianness : Big<br>
Codec ID : 129<br>
Duration : 29 min 14 s<br>
Bit rate mode : Constant<br>
Bit rate : 384 kb/s<br>
Channel(s) : 6 channels<br>
Channel positions : Front: L C R, Side: L R, LFE<br>
Sampling rate : 48.0 kHz<br>
Frame rate : 31.250 FPS (1536 SPF)<br>
Bit depth : 16 bits<br>
Compression mode : Lossy<br>
Delay relative to video : -98 ms<br>
Stream size : 80.3 MiB (3%)<br>
Language : Portuguese<br>
Service kind : Complete Main<br>
<br>
Audio #2<br>
ID : 258 (0x102)<br>
Menu ID : 1 (0x1)<br>
Format : AC-3<br>
Format/Info : Audio Coding 3<br>
Format settings, Endianness : Big<br>
Codec ID : 129<br>
Duration : 29 min 14 s<br>
Bit rate mode : Constant<br>
Bit rate : 192 kb/s<br>
Channel(s) : 2 channels<br>
Channel positions : Front: L R<br>
Sampling rate : 48.0 kHz<br>
Frame rate : 31.250 FPS (1536 SPF)<br>
Bit depth : 16 bits<br>
Compression mode : Lossy<br>
Delay relative to video : -98 ms<br>
Stream size : 40.1 MiB (2%)<br>
Language : sap<br>
Service kind : Complete Main<br>
<br>
Audio #3<br>
ID : 259 (0x103)<br>
Menu ID : 1 (0x1)<br>
Format : MPEG Audio<br>
Format version : Version 1<br>
Format profile : Layer 2<br>
Codec ID : 3<br>
Duration : 29 min 13 s<br>
Bit rate mode : Constant<br>
Bit rate : 192 kb/s<br>
Channel(s) : 2 channels<br>
Sampling rate : 48.0 kHz<br>
Compression mode : Lossy<br>
Delay relative to video : -82 ms<br>
Stream size : 40.1 MiB (2%)<br>
Language : dub<br>
<br>
Audio #4<br>
ID : 260 (0x104)<br>
Menu ID : 1 (0x1)<br>
Format : MPEG Audio<br>
Format version : Version 1<br>
Format profile : Layer 2<br>
Codec ID : 3<br>
Duration : 29 min 13 s<br>
Bit rate mode : Constant<br>
Bit rate : 128 kb/s<br>
Channel(s) : 2 channels<br>
Sampling rate : 48.0 kHz<br>
Compression mode : Lossy<br>
Delay relative to video : -82 ms<br>
Stream size : 26.8 MiB (1%)<br>
Language : aud<br>
<br>
Text #1<br>
ID : 256 (0x100)-CC1<br>
Menu ID : 1 (0x1)<br>
Format : EIA-608<br>
Muxing mode : SCTE 128 / DTVCC Transport<br>
Muxing mode, more info : Muxed in Video #1<br>
Duration : 29 min 13 s<br>
Bit rate mode : Constant<br>
Stream size : 0.00 Byte (0%)<br>
CaptionServiceName : CC1<br>
<br>
Text #2<br>
ID : 256 (0x100)-1<br>
Menu ID : 1 (0x1)<br>
Format : EIA-708<br>
Muxing mode : SCTE 128 / DTVCC Transport<br>
Muxing mode, more info : Muxed in Video #1<br>
Duration : 29 min 13 s<br>
Bit rate mode : Constant<br>
Stream size : 0.00 Byte (0%)<br>
<br>
Menu<br>
ID : 4096 (0x1000)<br>
Menu ID : 1 (0x1)<br>
Duration : 29 min 13 s<br>
List : 256 (0x100) (AVC) / 257 (0x101) (AC-3, Portuguese) / 258 (0x102) (AC-3, sap) / 259 (0x103) (MPEG Audio, dub) / 260 (0x104) (MPEG Audio, aud)<br>
Language : / Portuguese / sap / dub / aud<br>
Service name : Service01<br>
Service provider : FFmpeg<br>
Service type : digital television</div>
</div><br>
Link:<br>
<div class="bbCodeBlock bbCodeVfcHH HiddenContent">
<div class="attribution type">Hidden Content:</div>
<blockquote>You must reply before you can see the hidden data contained here.</blockquote>
</div>
<div class="messageTextEndMarker">&nbsp;</div>
</blockquote>
</article>]]></description>
                <author><![CDATA[chmt]]></author>
                </item>

                </channel></rss>